<svg width="103" height="104" viewBox="0 0 103 104" fill="none" xmlns="http://www.w3.org/2000/svg">
<path d="M82.0781 19.3375C85.1359 9.91247 73.3875 4.71247 68.5593 9.91247C62.2828 -0.487529 48.925 6.98747 48.925 6.98747C48.925 6.98747 41.6828 -1.13753 32.3484 6.33747C28.9687 2.92497 18.8297 2.11247 19.1515 18.6875C7.88591 19.6625 8.04685 35.5875 13.1969 38.025L87.55 44.525C94.7922 41.6 97.5281 22.1 82.0781 19.3375Z" fill="#EDD8B4"/>
<path d="M35.0844 7.7999C35.8891 0.812397 22.5312 2.1124 24.6234 9.7499C19.6344 11.5374 23.175 19.1749 27.1984 17.2249C27.3594 23.2374 37.3375 21.7749 35.8891 15.4374C39.5906 17.0624 42.8094 6.9874 35.0844 7.7999Z" fill="#FFF8D6"/>
<path d="M33.314 9.91228C34.7625 7.31228 29.9344 4.38728 29.6125 9.09978C26.7156 6.66228 23.014 13.4873 28.164 13.6498C25.75 17.3873 32.0265 19.6623 33.1531 16.0873C38.1422 15.5998 36.6937 9.09978 33.314 9.91228Z" fill="#EDD8B4"/>
<path d="M33.475 12.5123C31.5437 12.0248 31.8656 11.8623 32.0266 10.3998C32.3484 7.63728 30.7391 7.63728 30.9 10.2373C31.0609 11.8623 30.7391 12.5123 29.1297 11.2123C27.0375 9.74978 26.8766 11.3748 28.8078 12.0248C30.5781 12.8373 29.9344 12.3498 29.9344 14.6248C29.9344 16.4123 30.9 16.8998 31.0609 14.6248C31.2219 12.3498 31.0609 12.5123 32.8312 13.6498C34.6016 14.6248 35.2453 12.9998 33.475 12.5123Z" fill="#C9AE81"/>
<path d="M28.8078 25.6752C32.5094 22.4252 23.4969 13.6502 20.1172 22.5877C13.0359 18.2002 9.65626 31.3627 16.5766 35.1002C19.9563 37.0502 39.4297 35.7502 28.8078 25.6752Z" fill="#FFF8D6"/>
<path d="M21.4047 25.6752C19.4734 22.7502 13.6797 26.4877 18.3469 29.4127C8.20782 34.1252 36.6938 37.5377 27.8422 28.9252C30.0953 23.0752 22.5313 21.4502 21.4047 25.6752Z" fill="#EDD8B4"/>
<path d="M24.3015 26.8125C22.6922 28.6 22.6922 28.275 21.2437 27.4625C18.5078 25.675 17.5422 28.4375 20.6 29.7375C22.3703 30.3875 22.2093 30.7125 24.6234 32.0125C26.5547 32.9875 27.5203 32.0125 25.1062 30.7125C22.6922 29.4125 22.8531 29.7375 25.1062 28.275C27.1984 26.4875 25.75 25.025 24.3015 26.8125Z" fill="#C9AE81"/>
<path d="M89.4813 30.2249C92.8609 27.2999 84.8141 19.4999 81.7563 27.4624C75.4797 23.5624 70.0078 37.2124 78.5375 38.6749C77.8938 44.5249 86.9063 44.5249 86.9063 39.6499C92.7 42.4124 96.4016 31.8499 89.4813 30.2249Z" fill="#FFF8D6"/>
<path d="M82.8828 30.2248C81.1125 27.6248 75.8015 30.8748 80.1469 33.4748C76.2844 35.2623 81.1125 41.9248 83.8484 36.8873C86.4234 40.9498 91.5734 35.7498 88.8375 32.9873C90.6078 27.9498 83.8484 26.4873 82.8828 30.2248Z" fill="#EDD8B4"/>
<path d="M85.4578 31.2001C84.0094 32.8251 84.0094 32.5001 82.7219 31.6876C80.3078 30.0626 79.3422 31.5251 82.0781 32.6626C83.6875 33.3126 84.1703 33.8001 82.0781 34.9376C79.664 36.2376 81.2734 37.2126 82.7219 35.7501C84.3312 34.1251 83.5265 34.6126 85.6187 35.7501C87.389 36.5626 88.1937 35.7501 86.1015 34.6126C84.0094 33.4751 84.0094 33.6376 86.1015 32.3376C88.0328 31.0376 86.7453 29.5751 85.4578 31.2001Z" fill="#C9AE81"/>
<path d="M57.6157 11.375C61.1563 8.28749 52.6266 0.162493 49.5688 8.44999C42.9703 4.38749 37.3375 18.525 46.1891 20.15C45.5453 26.1625 54.8797 26.325 55.0407 21.125C60.9953 24.05 64.6969 13 57.6157 11.375Z" fill="#FFF8D6"/>
<path d="M50.6953 11.3748C48.925 8.6123 43.4531 12.0248 47.7984 14.7873C43.775 16.5748 48.764 23.5623 51.6609 18.3623C54.2359 22.5873 59.7078 17.2248 56.8109 14.2998C58.9031 8.9373 51.6609 7.4748 50.6953 11.3748Z" fill="#EDD8B4"/>
<path d="M53.2703 12.3501C51.661 14.1376 51.8219 13.8126 50.3735 13.0001C47.7985 11.3751 46.8328 12.8376 49.7297 13.9751C51.3391 14.6251 51.8219 15.2751 49.8907 16.2501C47.3157 17.7126 48.925 18.6876 50.5344 17.0626C52.1438 15.4376 51.3391 15.9251 53.5922 17.0626C55.3625 18.0376 56.3281 17.0626 54.075 15.9251C51.8219 14.6251 51.9828 14.9501 54.075 13.6501C56.0063 12.1876 54.7188 10.8876 53.2703 12.3501Z" fill="#C9AE81"/>
<path d="M44.4187 26.1625C45.3844 21.45 33.1531 19.6625 35.889 28.7625C27.8422 29.4125 31.2219 40.7875 40.5562 40.7875C53.7531 40.625 51.339 23.075 44.4187 26.1625Z" fill="#FFF8D6"/>
<path d="M37.3375 30.5499C34.7625 43.3874 53.2703 38.6749 45.5453 29.2499C43.9359 23.3999 38.3031 26.3249 37.3375 30.5499Z" fill="#EDD8B4"/>
<path d="M41.361 29.5751C41.2 32.0126 39.4297 30.8751 38.1422 32.0126C34.4406 35.2626 44.4188 38.3501 46.0281 32.5001C46.35 31.0376 41.8438 32.6626 42.6485 30.2251C43.6141 27.7876 41.6828 27.4626 41.361 29.5751Z" fill="#C9AE81"/>
<path d="M72.9047 15.1124C73.8703 10.3999 61.8 8.77493 64.5359 17.7124C56.65 18.3624 60.8344 33.4749 69.0422 29.4124C72.2609 34.7749 79.9859 29.2499 76.9281 25.0249C83.5266 23.5624 79.825 12.1874 72.9047 15.1124Z" fill="#FFF8D6"/>
<path d="M67.2719 19.3377C64.0531 18.2002 61.8 24.3752 67.111 23.8877C65.0188 27.7877 73.3875 30.5502 72.4219 24.5377C77.25 26.4877 78.3766 18.6877 74.1922 18.2002C72.4219 12.3502 65.6625 15.4377 67.2719 19.3377Z" fill="#EDD8B4"/>
<path d="M70.1688 18.525C70.0078 20.9625 69.8469 20.6375 68.2375 20.6375C65.1797 20.8 65.3406 22.5875 68.2375 21.9375C70.0078 21.45 70.8125 21.6125 69.6859 23.8875C68.3984 26.65 70.4906 26.4875 70.8125 24.05C71.1344 21.6125 70.8125 22.5875 73.2266 22.2625C75.3188 21.9375 75.4797 20.6375 72.9047 20.9625C70.3297 21.2875 70.6516 21.45 71.4563 19.0125C72.2609 16.7375 70.3297 16.4125 70.1688 18.525Z" fill="#C9AE81"/>
<path d="M12.5531 36.4002L25.2672 100.75H35.7281L27.1984 36.4002C26.5547 27.3002 11.2656 27.3002 12.5531 36.4002Z" fill="#ED4C5C"/>
<path d="M27.1984 36.4002L35.7281 100.75H46.1891L41.8437 36.4002C41.8437 27.3002 26.5547 27.3002 27.1984 36.4002Z" fill="#F9F9F9"/>
<path d="M41.8438 36.4002L46.1891 100.75H56.65V36.4002C57.1328 27.3002 41.8438 27.3002 41.8438 36.4002Z" fill="#ED4C5C"/>
<path d="M56.65 36.4002V100.75H66.95L71.2953 36.4002C72.261 27.3002 57.1328 27.3002 56.65 36.4002Z" fill="#F9F9F9"/>
<path d="M66.95 100.75L73.5485 96.1998L76.6063 38.5123C77.5719 31.5248 71.7781 28.9248 71.1344 36.3998L66.95 100.75Z" fill="#C94747"/>
<path d="M79.1812 92.3002L82.239 40.6252C83.3656 34.1252 77.7328 31.5252 76.7672 38.5127L73.7094 96.2002L79.1812 92.3002Z" fill="#E8E8E8"/>
<path d="M83.8485 89.2126L87.55 42.9001C88.8375 36.8876 83.3656 34.2876 82.2391 40.7876L79.1813 92.4626L83.8485 89.2126Z" fill="#C94747"/>
<path d="M86.9063 87.1L90.6078 44.85C90.9297 40.1375 88.0328 38.5125 87.55 42.9L83.8484 89.2125L86.9063 87.1Z" fill="#E8E8E8"/>
</svg>
