<svg width="38" height="38" viewBox="0 0 38 38" fill="none" xmlns="http://www.w3.org/2000/svg">
<path d="M37.75 0.25H0.25V37.75H37.75V0.25ZM19 6.5C23.0208 6.5 26.2917 9.77083 26.2917 13.7917C26.2917 17.8125 23.0208 21.0833 19 21.0833C14.9792 21.0833 11.7083 17.8125 11.7083 13.7917C11.7083 9.77083 14.9792 6.5 19 6.5ZM33.5833 33.5833H4.41667V33.1042C4.41667 31.8125 5 30.6042 6 29.8125C9.5625 26.9583 14.0833 25.25 19 25.25C23.9167 25.25 28.4375 26.9583 32 29.8125C33 30.6042 33.5833 31.8333 33.5833 33.1042V33.5833Z" fill="#DADADA"/>
</svg>
