<svg width="42" height="42" viewBox="0 0 42 42" fill="none" xmlns="http://www.w3.org/2000/svg">
<path fill-rule="evenodd" clip-rule="evenodd" d="M35.5834 6.4165H33.5001V2.24984C33.5001 1.09924 32.5673 0.166504 31.4167 0.166504C30.2662 0.166504 29.3334 1.09924 29.3334 2.24984V6.4165H12.6667V2.24984C12.6667 1.09924 11.734 0.166504 10.5834 0.166504C9.43282 0.166504 8.50008 1.09924 8.50008 2.24984V6.4165H6.41675C2.96497 6.4165 0.166748 9.21472 0.166748 12.6665V35.5832C0.166748 39.035 2.96497 41.8332 6.41675 41.8332H35.5834C39.0352 41.8332 41.8334 39.035 41.8334 35.5832V12.6665C41.8334 9.21472 39.0352 6.4165 35.5834 6.4165ZM4.33341 12.6665C4.33341 11.5159 5.26615 10.5832 6.41675 10.5832H35.5834C36.734 10.5832 37.6668 11.5159 37.6668 12.6665V14.7498H4.33341V12.6665ZM35.5834 37.6665C36.734 37.6665 37.6668 36.7338 37.6668 35.5832V18.9165H4.33341V35.5832C4.33341 36.7338 5.26615 37.6665 6.41675 37.6665H35.5834Z" fill="#231F20"/>
</svg>
