<svg width="42" height="41" viewBox="0 0 42 41" fill="none" xmlns="http://www.w3.org/2000/svg">
<path d="M12.7748 0L5.04145 13.5333H2.08312C1.7629 13.5337 1.44707 13.6078 1.1601 13.7499C0.873133 13.8919 0.622739 14.0982 0.428329 14.3526C0.233918 14.6071 0.100714 14.9029 0.0390423 15.2171C-0.0226295 15.5313 -0.0111123 15.8555 0.0727006 16.1646L5.90395 37.5458C6.14566 38.4272 6.6699 39.205 7.39623 39.7597C8.12257 40.3144 9.01085 40.6155 9.92478 40.6167H31.7435C33.6144 40.6167 35.2685 39.3562 35.7644 37.5437L41.5956 16.1625C41.6804 15.8533 41.6926 15.5288 41.6312 15.2141C41.5697 14.8995 41.4364 14.6033 41.2415 14.3487C41.0467 14.0942 40.7956 13.8881 40.5079 13.7466C40.2202 13.6052 39.9037 13.5322 39.5831 13.5333H36.6248L28.8915 0L25.2748 2.06667L31.8269 13.5333H9.83937L16.3915 2.06667L12.7748 0ZM24.9998 21.8667H29.1665V32.2833H24.9998V21.8667ZM12.4998 21.8667H16.6665V32.2833H12.4998V21.8667Z" fill="#DADADA"/>
</svg>
