<svg width="38" height="42" viewBox="0 0 38 42" fill="none" xmlns="http://www.w3.org/2000/svg">
<path fill-rule="evenodd" clip-rule="evenodd" d="M25.0899 2.07954C25.0657 2.86975 25.4908 3.6056 26.1875 3.9793L32.4375 8.14597C32.773 8.38095 33.1738 8.50482 33.5833 8.50013C34.497 8.49308 35.2994 7.89152 35.5624 7.0165C35.8254 6.14148 35.4876 5.19721 34.7292 4.68763L28.4792 0.520967C27.8635 0.0250323 27.0201 -0.0796805 26.3019 0.250625C25.5836 0.580931 25.1142 1.28934 25.0899 2.07954ZM19 4.33347C8.64466 4.33347 0.25 12.7281 0.25 23.0835C0.25 33.4388 8.64466 41.8335 19 41.8335C29.3553 41.8335 37.75 33.4388 37.75 23.0835C37.75 12.7281 29.3553 4.33347 19 4.33347ZM19 37.6668C10.9458 37.6668 4.41667 31.1376 4.41667 23.0835C4.41667 15.0293 10.9458 8.50013 19 8.50013C27.0542 8.50013 33.5833 15.0293 33.5833 23.0835C33.5833 31.1376 27.0542 37.6668 19 37.6668ZM2.6875 7.56263C2.0599 6.60663 2.32026 5.32343 3.27083 4.68763L9.52083 0.520967C10.1365 0.0250323 10.9799 -0.0796805 11.6981 0.250625C12.4164 0.580931 12.8858 1.28934 12.9101 2.07954C12.9343 2.86975 12.5092 3.6056 11.8125 3.9793L5.5625 8.14597C5.22699 8.38095 4.82625 8.50482 4.41667 8.50013C3.71975 8.49653 3.0708 8.14469 2.6875 7.56263ZM25.2621 27.2501C25.2621 26.6946 25.0402 26.1621 24.6458 25.771L21.0833 22.2293V14.7501C21.0833 13.5995 20.1506 12.6668 19 12.6668C17.8494 12.6668 16.9167 13.5995 16.9167 14.7501V23.0835C16.9135 23.6372 17.1309 24.1695 17.5208 24.5626L21.6875 28.7293C22.0787 29.1237 22.6112 29.3455 23.1667 29.3455C23.7222 29.3455 24.2547 29.1237 24.6458 28.7293C25.0402 28.3381 25.2621 27.8056 25.2621 27.2501Z" fill="#231F20"/>
</svg>
