<svg width="40" height="40" viewBox="0 0 40 40" fill="none" xmlns="http://www.w3.org/2000/svg">
<path fill-rule="evenodd" clip-rule="evenodd" d="M34.1398 34.1401C26.2923 41.7195 13.8182 41.6111 6.10347 33.8965C-1.6112 26.1818 -1.7196 13.7077 5.85985 5.86009C13.7074 -1.71935 26.1815 -1.61096 33.8962 6.10372C41.6109 13.8184 41.7193 26.2925 34.1398 34.1401ZM28.5198 14.3201L22.8198 20.0001L28.5198 25.6801C28.8985 26.0556 29.1114 26.5668 29.1114 27.1001C29.1114 27.6334 28.8985 28.1446 28.5198 28.5201C28.1424 28.8945 27.6315 29.1032 27.0998 29.1001C26.5682 29.1032 26.0573 28.8945 25.6798 28.5201L19.9998 22.8201L14.3198 28.5201C13.9424 28.8945 13.4315 29.1032 12.8998 29.1001C12.3682 29.1032 11.8573 28.8945 11.4798 28.5201C11.1012 28.1446 10.8882 27.6334 10.8882 27.1001C10.8882 26.5668 11.1012 26.0556 11.4798 25.6801L17.1798 20.0001L11.4798 14.3201C10.9725 13.8128 10.7744 13.0733 10.9601 12.3803C11.1458 11.6873 11.6871 11.146 12.3801 10.9603C13.0731 10.7746 13.8125 10.9728 14.3198 11.4801L19.9998 17.1801L25.6798 11.4801C26.1872 10.9728 26.9266 10.7746 27.6196 10.9603C28.3126 11.146 28.8539 11.6873 29.0396 12.3803C29.2253 13.0733 29.0272 13.8128 28.5198 14.3201ZM8.69663 8.68848C14.9422 2.44057 25.0696 2.43682 31.3198 8.68009C34.3491 11.668 36.0544 15.7453 36.0544 20.0001C36.0544 24.2549 34.3491 28.3322 31.3198 31.3201C25.0696 37.5634 14.9422 37.5596 8.69663 31.3117C2.45103 25.0638 2.45103 14.9364 8.69663 8.68848Z" fill="#A49797"/>
</svg>
