<svg width="16" height="19" viewBox="0 0 16 19" fill="none" xmlns="http://www.w3.org/2000/svg">
<path d="M3.68326 18.7122C3.16474 18.7122 2.72102 18.5153 2.35208 18.1213C1.98252 17.7267 1.79774 17.2526 1.79774 16.699V3.61269H0.85498V1.59941H5.56879V0.592773H11.2254V1.59941H15.9392V3.61269H14.9964V16.699C14.9964 17.2526 14.8119 17.7267 14.443 18.1213C14.0734 18.5153 13.6294 18.7122 13.1109 18.7122H3.68326ZM13.1109 3.61269H3.68326V16.699H13.1109V3.61269ZM5.56879 14.6857H7.45431V5.62596H5.56879V14.6857ZM9.33983 14.6857H11.2254V5.62596H9.33983V14.6857ZM3.68326 3.61269V16.699V3.61269Z" fill="#CCCCCC"/>
</svg>
