<svg width="45" height="40" viewBox="0 0 45 40" fill="none" xmlns="http://www.w3.org/2000/svg">
<path d="M30.2812 21.375H14.2441V17.8125H30.2812V1.33594C30.2812 0.981625 30.1553 0.641824 29.9312 0.391287C29.707 0.14075 29.403 0 29.0859 0H1.19531C0.878296 0 0.574264 0.14075 0.350099 0.391287C0.125934 0.641824 0 0.981625 0 1.33594V37.8516C0 38.2059 0.125934 38.5457 0.350099 38.7962C0.574264 39.0467 0.878296 39.1875 1.19531 39.1875H29.0859C29.403 39.1875 29.707 39.0467 29.9312 38.7962C30.1553 38.5457 30.2812 38.2059 30.2812 37.8516V21.375ZM38.5857 21.375L32.2107 28.5L34.4648 31.0194L44.6868 19.5938L34.4648 8.16814L32.2107 10.6875L38.5857 17.8125H30.2812V21.375H38.5857Z" fill="#DADADA"/>
</svg>
