<svg width="51" height="51" viewBox="0 0 51 51" fill="none" xmlns="http://www.w3.org/2000/svg">
<path d="M25.5004 12.75C23.2841 12.7528 21.1594 13.6345 19.5922 15.2016C18.0251 16.7688 17.1434 18.8935 17.1406 21.1097H21.3906C21.3906 18.8424 23.2351 17 25.5004 17C27.7656 17 29.6101 18.8424 29.6101 21.1097C29.6101 22.3805 28.588 23.3028 27.0261 24.565C26.5159 24.9647 26.0258 25.3895 25.5578 25.8379C23.437 27.9565 23.3754 30.2069 23.3754 30.4576V31.875H27.6254L27.6232 30.5299C27.6254 30.4959 27.6934 29.7096 28.5604 28.8448C28.8791 28.526 29.2808 28.2073 29.6973 27.8715C31.3526 26.5306 33.858 24.5055 33.858 21.1097C33.8563 18.8935 32.9753 16.7685 31.4084 15.2011C29.8414 13.6338 27.7166 12.7523 25.5004 12.75ZM23.3754 34H27.6254V38.25H23.3754V34Z" fill="#DADADA"/>
<path d="M25.5 4.25C13.7828 4.25 4.25 13.7828 4.25 25.5C4.25 37.2173 13.7828 46.75 25.5 46.75C37.2173 46.75 46.75 37.2173 46.75 25.5C46.75 13.7828 37.2173 4.25 25.5 4.25ZM25.5 42.5C16.1266 42.5 8.5 34.8734 8.5 25.5C8.5 16.1266 16.1266 8.5 25.5 8.5C34.8734 8.5 42.5 16.1266 42.5 25.5C42.5 34.8734 34.8734 42.5 25.5 42.5Z" fill="#DADADA"/>
</svg>
