<svg width="51" height="51" viewBox="0 0 51 51" fill="none" xmlns="http://www.w3.org/2000/svg">
<path d="M25.5 44.625C20.6125 44.625 16.354 43.0043 12.7245 39.763C9.09358 36.5231 7.0125 32.4771 6.48125 27.625H10.8375C11.3333 31.3083 12.971 34.3542 15.7505 36.7625C18.5314 39.1708 21.7812 40.375 25.5 40.375C29.6437 40.375 33.1585 38.9314 36.0443 36.0443C38.9314 33.1585 40.375 29.6437 40.375 25.5C40.375 21.3562 38.9314 17.8408 36.0443 14.9536C33.1585 12.0679 29.6437 10.625 25.5 10.625C23.0562 10.625 20.7719 11.1917 18.6469 12.325C16.5219 13.4583 14.7333 15.0167 13.2812 17H19.125V21.25H6.375V8.5H10.625V13.4937C12.4313 11.2271 14.6363 9.47396 17.2401 8.23438C19.8425 6.99479 22.5958 6.375 25.5 6.375C28.1562 6.375 30.6446 6.87933 32.9651 7.888C35.2842 8.89808 37.303 10.2616 39.0214 11.9786C40.7384 13.697 42.1019 15.7158 43.112 18.0349C44.1207 20.3554 44.625 22.8438 44.625 25.5C44.625 28.1562 44.1207 30.6439 43.112 32.963C42.1019 35.2835 40.7384 37.3022 39.0214 39.0192C37.303 40.7377 35.2842 42.1019 32.9651 43.112C30.6446 44.1207 28.1562 44.625 25.5 44.625ZM31.45 34.425L23.375 26.35V14.875H27.625V24.65L34.425 31.45L31.45 34.425Z" fill="#CCCCCC"/>
</svg>
