<svg width="65" height="65" viewBox="0 0 65 65" fill="none" xmlns="http://www.w3.org/2000/svg">
<path fill-rule="evenodd" clip-rule="evenodd" d="M32.5 12.917C40.0709 12.917 46.2083 19.0544 46.2083 26.6253C46.4825 32.7549 41.5671 40.9212 34.0863 51.2612C33.718 51.7699 33.128 52.0711 32.5 52.0711C31.872 52.0711 31.2821 51.7699 30.9138 51.2612C23.4329 40.9016 18.5175 32.7353 18.7917 26.6253C18.7917 19.0544 24.9291 12.917 32.5 12.917ZM32.5 46.8157C37.7288 39.4132 42.5658 31.5995 42.2917 26.8016V26.7428V26.6253C42.2917 21.2175 37.9078 16.8337 32.5 16.8337C27.0922 16.8337 22.7083 21.2175 22.7083 26.6253V26.7428C22.4342 31.5407 27.2713 39.3545 32.5 46.8157ZM32.5 20.7503C29.2553 20.7503 26.625 23.3807 26.625 26.6253C26.625 29.87 29.2553 32.5003 32.5 32.5003C35.7447 32.5003 38.375 29.87 38.375 26.6253C38.375 25.0672 37.756 23.5728 36.6543 22.4711C35.5525 21.3693 34.0582 20.7503 32.5 20.7503ZM30.5417 26.6253C30.5417 27.7069 31.4184 28.5837 32.5 28.5837C33.5816 28.5837 34.4583 27.7069 34.4583 26.6253C34.4583 25.5438 33.5816 24.667 32.5 24.667C31.4184 24.667 30.5417 25.5438 30.5417 26.6253Z" fill="white"/>
<circle cx="32.5" cy="32.5" r="32" stroke="#998888"/>
</svg>
