<svg width="30" height="30" viewBox="0 0 30 30" fill="none" xmlns="http://www.w3.org/2000/svg">
<path d="M9.71522 3.04876L11.0602 2.61876C12.3227 2.21626 13.669 2.86751 14.2102 4.14001L15.284 6.67501C15.7515 7.77876 15.4927 9.07751 14.6415 9.88501L12.274 12.1325C12.419 13.4775 12.8715 14.8013 13.629 16.1038C14.3487 17.364 15.314 18.467 16.4677 19.3475L19.3115 18.3975C20.3902 18.0388 21.564 18.4525 22.224 19.4238L23.7652 21.6863C24.534 22.8163 24.3965 24.3738 23.4427 25.3313L22.4202 26.3575C21.4027 27.3788 19.949 27.75 18.6052 27.33C15.4315 26.34 12.514 23.4013 9.85147 18.5138C7.18523 13.6188 6.24398 9.46376 7.02898 6.05376C7.35897 4.61876 8.38022 3.47501 9.71522 3.04876Z" fill="#707991"/>
</svg>
