<svg width="97" height="97" viewBox="0 0 97 97" fill="none" xmlns="http://www.w3.org/2000/svg">
<path d="M85.0747 78.8296C90.0114 72.89 93.4449 65.8487 95.0847 58.3015C96.7246 50.7543 96.5226 42.9231 94.4958 35.4704C92.469 28.0178 88.677 21.1629 83.4407 15.4857C78.2044 9.8085 71.6777 5.47598 64.4128 2.85464C57.1479 0.233308 49.3586 -0.599719 41.7036 0.42603C34.0487 1.45178 26.7534 4.30613 20.435 8.74762C14.1165 13.1891 8.9607 19.0871 5.40373 25.9426C1.84675 32.7981 -0.00674641 40.4094 1.84513e-05 48.1328C0.00261436 59.3603 3.95914 70.2282 11.1753 78.8296L11.1066 78.8881C11.3472 79.1768 11.6222 79.4243 11.8697 79.7096C12.1791 80.0637 12.5125 80.3971 12.8322 80.7409C13.7947 81.7859 14.7847 82.7896 15.8228 83.7315C16.1391 84.0203 16.4656 84.2884 16.7853 84.5634C17.8853 85.5121 19.0163 86.4128 20.1885 87.2515C20.3397 87.3546 20.4772 87.4887 20.6285 87.5953V87.554C28.6794 93.2196 38.2838 96.2602 48.1285 96.2602C57.9731 96.2602 67.5775 93.2196 75.6285 87.554V87.5953C75.7797 87.4887 75.9138 87.3546 76.0685 87.2515C77.2372 86.4093 78.3716 85.5121 79.4716 84.5634C79.7913 84.2884 80.1178 84.0168 80.4341 83.7315C81.4722 82.7862 82.4622 81.7859 83.4247 80.7409C83.7444 80.3971 84.0744 80.0637 84.3872 79.7096C84.6313 79.4243 84.9097 79.1768 85.1503 78.8846L85.0747 78.8296ZM48.125 20.6328C51.1845 20.6328 54.1752 21.54 56.719 23.2397C59.2628 24.9394 61.2455 27.3553 62.4163 30.1819C63.5871 33.0084 63.8934 36.1187 63.2965 39.1193C62.6997 42.12 61.2264 44.8762 59.0631 47.0396C56.8997 49.2029 54.1435 50.6762 51.1428 51.273C48.1422 51.8699 45.0319 51.5636 42.2054 50.3928C39.3788 49.222 36.963 47.2393 35.2632 44.6955C33.5635 42.1517 32.6563 39.1609 32.6563 36.1015C32.6563 31.9989 34.286 28.0644 37.187 25.1634C40.0879 22.2625 44.0225 20.6328 48.125 20.6328V20.6328ZM20.6491 78.8296C20.7087 74.3161 22.543 70.0075 25.755 66.836C28.967 63.6645 33.2986 61.8851 37.8125 61.8828H58.4375C62.9515 61.8851 67.283 63.6645 70.495 66.836C73.7071 70.0075 75.5413 74.3161 75.601 78.8296C68.062 85.6233 58.2734 89.383 48.125 89.383C37.9766 89.383 28.1881 85.6233 20.6491 78.8296V78.8296Z" fill="#DADADA"/>
</svg>
