<svg width="60" height="60" viewBox="0 0 60 60" fill="none" xmlns="http://www.w3.org/2000/svg">
<circle cx="30" cy="30" r="30" fill="#3F3737"/>
<path fill-rule="evenodd" clip-rule="evenodd" d="M40.4166 19.5834C40.4166 13.8304 35.7529 9.16675 30 9.16675C24.247 9.16675 19.5833 13.8304 19.5833 19.5834C19.5833 25.3364 24.247 30.0001 30 30.0001H27.9166C17.5613 30.0001 9.16663 38.3947 9.16663 48.7501C9.16663 49.9007 10.0994 50.8334 11.25 50.8334H48.75C49.9006 50.8334 50.8333 49.9007 50.8333 48.7501C50.8333 38.3947 42.4386 30.0001 32.0833 30.0001H30C32.7626 30.0001 35.4122 28.9026 37.3657 26.9491C39.3192 24.9956 40.4166 22.3461 40.4166 19.5834ZM27.9166 34.1667C20.6658 34.1649 14.515 39.4903 13.4791 46.6667H46.5208C45.485 39.4903 39.3341 34.1649 32.0833 34.1667H27.9166ZM23.75 19.5834C23.75 23.0352 26.5482 25.8334 30 25.8334C31.6576 25.8334 33.2473 25.1749 34.4194 24.0028C35.5915 22.8307 36.25 21.241 36.25 19.5834C36.25 16.1316 33.4517 13.3334 30 13.3334C26.5482 13.3334 23.75 16.1316 23.75 19.5834Z" fill="#FFF9FB"/>
</svg>
